<?xml version="1.0" encoding="UTF-8" standalone="no"?>
<!-- Generator: Adobe Illustrator 16.0.0, SVG Export Plug-In . SVG Version: 6.00 Build 0)  -->

<svg
   xmlns:dc="http://purl.org/dc/elements/1.1/"
   xmlns:cc="http://creativecommons.org/ns#"
   xmlns:rdf="http://www.w3.org/1999/02/22-rdf-syntax-ns#"
   xmlns:svg="http://www.w3.org/2000/svg"
   xmlns="http://www.w3.org/2000/svg"
   xmlns:sodipodi="http://sodipodi.sourceforge.net/DTD/sodipodi-0.dtd"
   xmlns:inkscape="http://www.inkscape.org/namespaces/inkscape"
   version="1.1"
   x="0px"
   y="0px"
   width="483.578"
   height="487.65533"
   viewBox="0 0 483.57801 487.65534"
   enable-background="new 0 0 1133.86 1133.86"
   xml:space="preserve"
   id="svg2"
   inkscape:version="0.91 r13725"
   sodipodi:docname="logo_no_fake_science.svg"><metadata
     id="metadata579"><rdf:RDF><cc:Work
         rdf:about=""><dc:format>image/svg+xml</dc:format><dc:type
           rdf:resource="http://purl.org/dc/dcmitype/StillImage" /><dc:title></dc:title></cc:Work></rdf:RDF></metadata><defs
     id="defs577" /><sodipodi:namedview
     pagecolor="#ffffff"
     bordercolor="#666666"
     borderopacity="1"
     objecttolerance="10"
     gridtolerance="10"
     guidetolerance="10"
     inkscape:pageopacity="0"
     inkscape:pageshadow="2"
     inkscape:window-width="1920"
     inkscape:window-height="1029"
     id="namedview575"
     showgrid="false"
     fit-margin-top="0"
     fit-margin-left="0"
     fit-margin-right="0"
     fit-margin-bottom="0"
     inkscape:zoom="0.41627715"
     inkscape:cx="-605.59807"
     inkscape:cy="-268.32559"
     inkscape:window-x="0"
     inkscape:window-y="0"
     inkscape:window-maximized="1"
     inkscape:current-layer="svg2" /><g
     id="Calque_3"
     transform="translate(-316.70099,-346.75365)"><circle
       cx="558.48999"
       cy="592.62"
       r="241.789"
       id="circle5"
       style="opacity:0.4;fill:#f39200" /></g><g
     id="Calque_2"
     transform="translate(-316.70099,-346.75365)"><g
       id="g8"><path
         d="m 587.94,791.777 c -49.475,5.336 -128.626,11.495 -179.54,21.719 l -3.168,-1.131 c 0.151,-8.719 -3.019,-21.493 -3.908,-31.344 -4.11,-32.007 -8.857,-63.819 -14.247,-95.439 C 374.685,605.484 362.494,526.048 350.102,445.95 l -0.899,-5.301 c 59.479,-4.224 118.539,-16.201 177.536,-25.204 l 61.201,376.332 z"
         id="path10"
         inkscape:connector-curvature="0"
         style="fill:#ffffff" /></g><g
       id="g12"><path
         d="m 590.849,793.835 c 18.842,5.284 39.794,14.379 57.368,22.899 l 2.198,-0.666 c 44.508,-27.668 89.019,-55.336 132.811,-85.367 l 0.797,-5.537 C 767.214,604.009 754.447,482.493 739.69,361.816 l -4.527,-0.515 c -31.667,14.623 -63.788,28.49 -93.895,46.211 -9.849,5.797 -19.467,11.99 -28.975,18.33 -7.47,4.979 -15.326,14.289 -25.033,10.679 -9.707,-3.612 -43.473,-15.962 -55.14,-21.136"
         id="path14"
         inkscape:connector-curvature="0"
         style="fill:#ffffff" /></g><g
       id="g16"><path
         d="m 405.232,812.365 c -1.196,-8.089 -4.622,-20.437 -6.496,-29.731 -6.693,-30.379 -13.671,-60.67 -20.938,-90.875 -17.787,-76.33 -35.377,-152.014 -53.163,-228.344 l 1.658,-0.416 c 1.316,-0.398 2.752,-0.833 4.187,-1.268 l 4.598,-0.438 c -0.509,-2.515 -1.019,-5.029 -1.529,-7.543 l 2.178,-0.138 c 3.542,-0.812 10.769,-2.608 14.311,-3.419"
         id="path18"
         inkscape:connector-curvature="0"
         style="fill:#ffffff" /></g><g
       id="g20"
       style="opacity:0.2"><path
         d="m 587.94,791.777 c -49.475,5.336 -128.626,11.495 -179.54,21.719 l -3.168,-1.131 c 0.151,-8.719 -3.019,-21.493 -3.908,-31.344 -4.11,-32.007 -8.857,-63.819 -14.247,-95.439 C 374.685,605.484 362.494,526.048 350.102,445.95 l -0.899,-5.301 c 59.479,-4.224 118.539,-16.201 177.536,-25.204 l 61.201,376.332 z"
         id="path22"
         inkscape:connector-curvature="0"
         style="fill:#cbbba0" /></g><g
       id="g24"
       style="opacity:0.3"><path
         d="m 590.849,793.835 c 18.842,5.284 39.794,14.379 57.368,22.899 l 2.198,-0.666 c 44.508,-27.668 89.019,-55.336 132.811,-85.367 l 0.797,-5.537 C 767.214,604.009 754.447,482.493 739.69,361.816 l -4.527,-0.515 c -31.667,14.623 -63.788,28.49 -93.895,46.211 -9.849,5.797 -19.467,11.99 -28.975,18.33 -7.47,4.979 -15.326,14.289 -25.033,10.679 -9.707,-3.612 -43.473,-15.962 -55.14,-21.136"
         id="path26"
         inkscape:connector-curvature="0"
         style="fill:#b2b2b2" /></g><g
       id="g28"><g
         id="g30"><path
           d="m 570.15,423.945 c -3.324,-2.178 -6.786,-4.077 -10.298,-5.931 -3.582,-1.89 -6.618,-4.375 -10.069,-6.447 -2.411,-1.447 -4.259,-2.707 -7.088,-3.25 -2.609,-0.501 0.565,0.706 -0.816,-0.103 -0.802,-0.47 -1.707,-0.53 -2.603,-0.458 0.804,0.612 1.607,1.224 2.411,1.835 -1.002,-2.735 -3.386,-3.567 -5.592,-1.458 -0.739,0.707 -0.913,1.955 -0.61,2.908 0.693,2.176 -0.089,1.058 1.262,0.314 -0.44,0.242 -0.708,0.612 -0.978,1.02 -0.796,1.201 -0.171,2.679 0.897,3.42 2.654,1.844 6.209,2.275 9.054,3.951 2.338,1.378 5.31,3.033 8.069,2.982 3.22,-0.06 3.228,-4.999 0,-5 -3.553,-0.001 -6.15,-2.656 -9.048,-4.373 -2.781,-1.647 -5.294,2.676 -2.523,4.317 3.856,2.285 6.876,5.054 11.571,5.056 0,-1.667 0,-3.333 0,-5 -1.692,0.031 -5.496,-2.27 -6.982,-3.146 -2.354,-1.388 -5.432,-1.586 -7.618,-3.104 0.299,1.14 0.598,2.28 0.897,3.42 -0.885,1.334 0.771,-1.063 0.984,-1.701 0.336,-1.006 0.031,-2.935 -0.863,-2.081 -0.811,0.214 -1.622,0.428 -2.432,0.643 0.186,0.05 0.372,0.1 0.558,0.15 -0.582,-0.582 -1.164,-1.164 -1.746,-1.746 0.093,0.252 0.185,0.505 0.278,0.757 0.363,0.99 1.249,1.929 2.411,1.835 -0.245,0.02 0.033,-0.21 0.775,0.348 0.497,0.373 1.354,0.426 1.926,0.252 1.544,-0.469 6.39,3.188 7.627,4.039 5.81,3.995 12.123,7.001 18.024,10.867 2.705,1.774 5.207,-2.557 2.522,-4.316 l 0,0 z"
           id="path32"
           inkscape:connector-curvature="0"
           style="fill:#b2b2b2" /></g></g><g
       id="g34"><path
         d="m 592.183,434.559 c 0.089,-0.087 1.627,-5.414 1.716,-5.501 2.126,-2.094 4.302,-4.139 6.521,-6.136 l -1.536,-0.416 c 19.333,-24.14 62.052,-55.013 100.574,-73.295 l 0.579,1.914 c 0.295,2.697 0.589,5.395 0.725,8.14 l 2.256,2.544 c 6.187,-2.846 12.387,-5.664 18.577,-8.505 l 1.207,3.988 c 0.198,2.378 0.908,5.297 0.628,7.82 -0.098,-0.319 -0.145,-0.478 -0.193,-0.638"
         id="path36"
         inkscape:connector-curvature="0"
         style="fill:#b2b2b2" /><g
         id="g38"><path
           d="m 594.594,435.223 c 0.5,-1.317 0.844,-2.707 1.251,-4.055 0.759,-2.514 4.363,-4.683 6.342,-6.479 1.408,-1.278 0.65,-3.704 -1.103,-4.178 -0.513,-0.139 -1.024,-0.277 -1.536,-0.416 0.367,1.393 0.735,2.786 1.103,4.178 12.051,-14.875 27.193,-27.21 42.585,-38.453 18.042,-13.178 37.324,-24.814 57.483,-34.451 -1.224,-0.498 -2.448,-0.996 -3.673,-1.494 0.993,3.282 0.414,6.819 1.304,10.054 0.377,1.369 1.994,2.627 2.899,3.647 0.792,0.893 2.044,0.844 3.029,0.391 6.188,-2.844 12.387,-5.666 18.577,-8.505 -1.224,-0.498 -2.448,-0.996 -3.673,-1.494 1.117,3.689 1.9,7.231 1.746,11.144 1.637,-0.222 3.273,-0.443 4.911,-0.665 -0.064,-0.213 -0.129,-0.425 -0.193,-0.638 -0.933,-3.077 -5.759,-1.765 -4.822,1.329 0.064,0.213 0.129,0.425 0.193,0.638 0.83,2.737 4.8,2.158 4.911,-0.665 0.171,-4.322 -0.686,-8.381 -1.924,-12.473 -0.502,-1.656 -2.195,-2.171 -3.673,-1.494 -6.19,2.839 -12.389,5.661 -18.577,8.505 1.01,0.13 2.02,0.261 3.029,0.391 -1.807,-2.038 -1.57,-1.759 -1.752,-4.051 -0.203,-2.551 -0.425,-5 -1.164,-7.444 -0.496,-1.638 -2.204,-2.196 -3.673,-1.494 -20.187,9.65 -39.364,21.342 -57.483,34.451 -15.768,11.408 -31.296,24.052 -43.597,39.235 -1.144,1.411 -0.857,3.648 1.103,4.178 0.513,0.139 1.024,0.277 1.536,0.416 -0.367,-1.393 -0.735,-2.786 -1.103,-4.178 -2.271,2.062 -6.13,4.518 -7.243,7.448 -0.655,1.725 -0.981,3.567 -1.637,5.292 -1.145,3.021 3.69,4.314 4.824,1.33 l 0,0 z"
           id="path40"
           inkscape:connector-curvature="0" /></g></g><g
       id="g42"
       style="opacity:0.5"><path
         d="m 405.232,812.365 c -1.196,-8.089 -4.622,-20.437 -6.496,-29.731 -6.693,-30.379 -13.671,-60.67 -20.938,-90.875 -17.787,-76.33 -35.377,-152.014 -53.163,-228.344 l 1.658,-0.416 c 1.316,-0.398 2.752,-0.833 4.187,-1.268 l 4.598,-0.438 c -0.509,-2.515 -1.019,-5.029 -1.529,-7.543 l 2.178,-0.138 c 3.542,-0.812 10.769,-2.608 14.311,-3.419"
         id="path44"
         inkscape:connector-curvature="0"
         style="fill:#cbbba0" /></g><g
       id="g46"
       style="opacity:0.7"><g
         id="g48"><path
           d="m 391.661,718.674 c -6.762,-43.587 -13.523,-87.174 -20.285,-130.762 -7.011,-45.191 -14.021,-90.383 -21.032,-135.575 -0.006,-0.04 -0.012,-0.081 -0.019,-0.121 -0.493,-3.179 -5.311,-1.824 -4.821,1.329 6.762,43.587 13.523,87.174 20.285,130.762 7.011,45.191 14.021,90.384 21.032,135.575 0.006,0.04 0.012,0.08 0.019,0.121 0.493,3.179 5.31,1.824 4.821,-1.329 l 0,0 z"
           id="path50"
           inkscape:connector-curvature="0"
           style="fill:#cbbba0" /></g></g><g
       id="g52"
       style="opacity:0.7"><g
         id="g54"><path
           d="m 388.186,720.422 c -9.139,-43.753 -18.278,-87.506 -27.417,-131.259 -8.798,-42.123 -17.597,-84.246 -26.395,-126.369 -0.659,-3.155 -5.479,-1.817 -4.821,1.329 9.139,43.753 18.278,87.506 27.417,131.259 8.798,42.123 17.597,84.246 26.395,126.369 0.658,3.156 5.478,1.817 4.821,-1.329 l 0,0 z"
           id="path56"
           inkscape:connector-curvature="0"
           style="fill:#cbbba0" /></g></g></g><g
     id="Calque_1"
     transform="translate(-316.70099,-346.75365)"><g
       id="g59"><path
         d="m 483.713,628.737 c -15.448,1.893 -30.993,3.466 -45.958,6.952 0,0 -5.28,-41.588 -7.492,-56.939 l 1.054,0.029 c 1.789,0.154 3.896,0.214 6.003,0.271 3.925,-0.84 7.946,-1.361 11.774,-2.521 9.86,-1.941 19.402,-3.786 29.36,-5.408 l 3.673,0.629 c 2.308,15.67 3.562,31.313 6.188,46.886 0.386,1.276 1.592,9.14 1.273,9.235 l -5.875,0.866 z"
         id="path61"
         inkscape:connector-curvature="0"
         style="fill:#ffffff" /><g
         id="g63"><path
           d="m 483.713,626.237 c -15.609,1.899 -31.268,3.55 -46.623,7.041 1.055,0.804 2.11,1.607 3.165,2.411 -2.439,-19.211 -4.833,-38.435 -7.581,-57.604 -0.804,1.056 -1.607,2.11 -2.411,3.165 3.192,0.089 6.256,0.51 9.409,-0.132 5.211,-1.06 10.387,-2.24 15.605,-3.258 5.472,-1.068 10.951,-2.097 16.44,-3.071 3.552,-0.631 6.248,-1.227 9.746,-0.627 -0.582,-0.582 -1.164,-1.164 -1.746,-1.746 1.66,11.482 2.83,23.027 4.348,34.528 0.559,4.228 0.915,8.665 1.952,12.805 0.467,1.865 1.625,5.788 1.161,7.458 0.582,-0.582 1.164,-1.164 1.746,-1.746 -1.959,0.289 -3.917,0.577 -5.876,0.865 -3.181,0.469 -1.824,5.286 1.329,4.822 1.959,-0.289 3.917,-0.577 5.876,-0.865 0.832,-0.123 1.535,-0.986 1.746,-1.746 0.552,-1.992 -0.235,-4.59 -0.533,-6.577 -0.688,-4.585 -1.577,-9.133 -2.225,-13.729 -1.741,-12.359 -2.917,-24.79 -4.703,-37.145 -0.111,-0.771 -0.989,-1.616 -1.746,-1.746 -7.763,-1.329 -15.692,1.189 -23.365,2.643 -9.816,1.86 -19.139,4.546 -29.165,4.268 -1.783,-0.05 -2.632,1.624 -2.411,3.165 2.685,18.727 5.019,37.507 7.402,56.274 0.208,1.641 1.433,2.805 3.165,2.411 14.922,-3.394 30.125,-5.018 45.293,-6.863 3.161,-0.385 3.198,-5.389 0.002,-5.001 z"
           id="path65"
           inkscape:connector-curvature="0" /></g></g><g
       id="g67"><path
         d="m 536.909,672.143 c -13.563,2.365 -27.154,5.784 -41.008,7.193 l -3.401,1.422 c 1.438,12.799 6.619,28.47 5.63,41.308 l 4.045,0.995 c 14.049,-2.537 28.217,-4.683 42.383,-6.827 l 2.399,-1.422 c -1.312,-13.535 -3.774,-27.417 -5.821,-41.076 l -4.227,-1.593 z"
         id="path69"
         inkscape:connector-curvature="0"
         style="fill:#ffffff" /><g
         id="g71"><path
           d="m 536.244,669.731 c -8.687,1.545 -17.309,3.419 -25.988,5.007 -6.193,1.133 -12.604,1.177 -18.421,3.608 -0.943,0.395 -1.98,1.228 -1.835,2.411 1.687,13.762 6.438,27.324 5.63,41.308 -0.063,1.079 0.806,2.157 1.835,2.411 7.538,1.854 15.078,-0.717 22.667,-1.949 5.782,-0.938 11.572,-1.827 17.363,-2.711 3.936,-0.601 7.315,-0.827 10.722,-2.846 0.701,-0.416 1.324,-1.305 1.238,-2.159 -1.407,-13.99 -3.811,-27.845 -5.911,-41.741 -0.134,-0.888 -0.988,-1.46 -1.746,-1.746 -1.409,-0.53 -2.818,-1.062 -4.227,-1.593 -3.023,-1.139 -4.317,3.696 -1.329,4.822 1.409,0.53 2.818,1.062 4.227,1.593 -0.582,-0.582 -1.164,-1.164 -1.746,-1.746 2.033,13.454 4.369,26.866 5.732,40.411 0.413,-0.72 0.826,-1.439 1.238,-2.159 -2.945,1.746 -6.146,1.828 -9.528,2.343 -5.148,0.783 -10.294,1.582 -15.437,2.401 -7.083,1.129 -14.958,3.975 -21.936,2.258 0.612,0.804 1.224,1.607 1.835,2.411 0.81,-14.026 -3.94,-27.522 -5.63,-41.308 -0.612,0.804 -1.224,1.607 -1.835,2.411 5.736,-2.398 12.307,-2.528 18.421,-3.609 8.687,-1.536 17.301,-3.462 25.987,-5.006 3.174,-0.564 1.826,-5.381 -1.326,-4.822 z"
           id="path73"
           inkscape:connector-curvature="0" /></g></g><g
       id="g75"><g
         id="g77"><path
           d="m 529.945,416.251 c 13.365,5.874 27.179,10.791 40.856,15.875 5.694,2.117 11.629,5.034 17.605,6.208 7.819,1.535 14.743,-4.367 20.42,-8.818 9.17,-7.191 19.55,-13.18 29.516,-19.19 10.161,-6.128 20.612,-11.759 31.181,-17.149 21.654,-11.043 43.922,-20.831 65.987,-31.008 2.926,-1.349 0.384,-5.658 -2.523,-4.317 -41.073,18.945 -81.831,37.455 -119.695,62.433 -6.863,4.527 -14.233,13.048 -22.894,13.251 -2.689,0.063 -5.776,-1.604 -8.273,-2.528 -2.96,-1.094 -5.919,-2.189 -8.877,-3.287 -13.643,-5.063 -27.45,-9.929 -40.779,-15.787 -2.923,-1.284 -5.47,3.023 -2.524,4.317 l 0,0 z"
           id="path79"
           inkscape:connector-curvature="0" /></g></g><g
       id="g81"><g
         id="g83"><path
           d="m 736.276,360.525 c 14.826,121.336 27.644,242.922 44.422,364.014 0.441,3.182 5.259,1.822 4.822,-1.33 -16.718,-120.648 -29.473,-241.792 -44.244,-362.684 -0.385,-3.158 -5.39,-3.196 -5,0 l 0,0 z"
           id="path85"
           inkscape:connector-curvature="0" /></g></g><g
       id="g87"><g
         id="g89"><path
           d="m 781.051,727.252 c -43.431,29.747 -88.114,57.581 -132.812,85.367 -2.731,1.698 -0.224,6.025 2.523,4.318 44.697,-27.787 89.382,-55.621 132.812,-85.367 2.642,-1.81 0.145,-6.145 -2.523,-4.318 l 0,0 z"
           id="path91"
           inkscape:connector-curvature="0" /></g></g><g
       id="g93"><g
         id="g95"><path
           d="m 648.565,813.283 c -17.796,-8.6 -35.944,-16.497 -54.984,-21.926 -3.107,-0.886 -4.425,3.939 -1.33,4.822 18.633,5.312 36.375,13.006 53.791,21.422 2.89,1.396 5.426,-2.914 2.523,-4.318 l 0,0 z"
           id="path97"
           inkscape:connector-curvature="0" /></g></g><g
       id="g99"><g
         id="g101"><path
           d="m 602.464,480.912 c 7.271,53.057 13.39,106.262 19.89,159.417 3.21,26.244 6.529,52.474 10.11,78.67 2.57,18.802 5.884,37.522 8.121,56.36 0.375,3.161 5.38,3.198 5,0 -2.136,-17.985 -5.281,-35.854 -7.765,-53.8 -3.742,-27.043 -7.147,-54.132 -10.467,-81.23 -6.563,-53.598 -12.736,-107.245 -20.067,-160.746 -0.436,-3.183 -5.254,-1.823 -4.822,1.329 l 0,0 z"
           id="path103"
           inkscape:connector-curvature="0" /></g></g><g
       id="g105"><path
         d="m 650.971,588.844 c 27.884,-10.083 52.921,-25.934 78.415,-40.267 l 1.461,-4.308 c 0.152,0.506 0.305,1.012 1.117,1.872 -0.012,-5.52 -0.682,-11.393 -1.351,-17.267 -2.281,-25.823 -5.727,-51.846 -8.514,-77.516 l -0.764,-2.531 c -28.284,12.414 -57.783,25.028 -84.337,41.339 l -0.096,3.342 c 1.633,30.99 9.388,59.743 9.664,90.521"
         id="path107"
         inkscape:connector-curvature="0"
         style="fill:#c6c6c6" /><g
         id="g109"><path
           d="m 651.636,591.255 c 16.615,-6.091 32.363,-14.098 47.798,-22.706 7.854,-4.379 15.62,-8.914 23.421,-13.386 2.334,-1.338 7.305,-2.959 8.689,-5.324 0.842,-1.437 1.182,-3.336 1.714,-4.905 -1.607,0 -3.215,0 -4.822,0 0.401,1.034 0.674,1.547 1.37,2.469 1.395,1.849 4.698,1.449 4.658,-1.262 -0.257,-17.356 -3.007,-34.962 -4.972,-52.199 -0.958,-8.405 -1.956,-16.806 -2.932,-25.209 -0.787,-6.775 -0.84,-14.028 -2.813,-20.57 -0.506,-1.676 -2.189,-2.145 -3.673,-1.494 -15.174,6.657 -30.37,13.265 -45.326,20.403 -7.236,3.454 -14.392,7.076 -21.46,10.862 -3.789,2.03 -7.532,4.145 -11.251,6.302 -2.001,1.161 -6.768,2.79 -7.449,5.266 -1.284,4.671 0.253,10.877 0.688,15.531 0.787,8.415 1.979,16.792 3.189,25.153 2.591,17.885 5.348,35.735 5.602,53.844 0.045,3.222 5.045,3.226 5,0 -0.233,-16.655 -2.542,-33.123 -4.96,-49.574 -2.135,-14.531 -5.03,-29.554 -4.608,-44.29 -0.413,0.72 -0.825,1.439 -1.238,2.159 26.791,-16.348 55.657,-28.758 84.337,-41.339 -1.224,-0.498 -2.448,-0.996 -3.673,-1.494 2.019,6.688 2.055,14.245 2.86,21.176 0.976,8.405 1.971,16.809 2.929,25.216 1.892,16.594 4.503,33.548 4.75,50.257 1.553,-0.42 3.105,-0.841 4.658,-1.262 -0.288,-0.425 -0.576,-0.85 -0.864,-1.274 -0.89,-2.296 -3.989,-2.454 -4.822,0 -0.46,1.356 -0.92,2.712 -1.38,4.069 0.364,-1.073 -3.619,1.397 -3.61,1.393 -2.08,1.182 -4.154,2.375 -6.229,3.566 -7.279,4.182 -14.546,8.387 -21.878,12.477 -14.525,8.101 -29.398,15.594 -45.032,21.323 -3.002,1.1 -1.706,5.934 1.329,4.822 l 0,0 z"
           id="path111"
           inkscape:connector-curvature="0" /></g></g><g
       id="g113"><g
         id="g115"><path
           d="m 731.755,573.709 c -24.702,11.903 -49.385,23.873 -73.154,37.572 -2.792,1.609 -0.275,5.931 2.523,4.318 23.77,-13.7 48.453,-25.67 73.154,-37.574 2.905,-1.399 0.368,-5.71 -2.523,-4.316 l 0,0 z"
           id="path117"
           inkscape:connector-curvature="0" /></g></g><g
       id="g119"><g
         id="g121"><path
           d="m 739.501,587.721 c -25.37,15.465 -50.599,31.217 -77.038,44.82 -2.868,1.477 -0.338,5.79 2.523,4.318 26.439,-13.604 51.668,-29.356 77.038,-44.822 2.748,-1.675 0.238,-6 -2.523,-4.316 l 0,0 z"
           id="path123"
           inkscape:connector-curvature="0" /></g></g><g
       id="g125"><g
         id="g127"><path
           d="m 736.261,613.553 c -19.237,10.804 -37.734,22.909 -57.463,32.832 -2.881,1.448 -0.349,5.762 2.523,4.316 19.729,-9.922 38.226,-22.027 57.463,-32.83 2.811,-1.579 0.291,-5.898 -2.523,-4.318 l 0,0 z"
           id="path129"
           inkscape:connector-curvature="0" /></g></g><g
       id="g131"><g
         id="g133"><path
           d="m 745.362,677.045 c -18.949,11.475 -37.905,22.938 -57.095,34.008 -2.791,1.61 -0.274,5.932 2.523,4.318 19.189,-11.07 38.146,-22.534 57.095,-34.01 2.754,-1.667 0.243,-5.992 -2.523,-4.316 l 0,0 z"
           id="path135"
           inkscape:connector-curvature="0" /></g></g><g
       id="g137"><g
         id="g139"><path
           d="m 740.14,694.299 c -12.645,7.533 -25.557,14.601 -38.258,22.035 -2.78,1.627 -0.266,5.949 2.523,4.316 12.701,-7.434 25.613,-14.502 38.258,-22.033 2.767,-1.648 0.254,-5.971 -2.523,-4.318 l 0,0 z"
           id="path141"
           inkscape:connector-curvature="0" /></g></g><g
       id="g143"><g
         id="g145"><path
           d="m 592.016,617.763 c -8.932,-3.616 -17.657,-7.592 -27.274,-8.981 -3.153,-0.455 -4.511,4.362 -1.33,4.822 9.617,1.389 18.343,5.364 27.274,8.981 2.991,1.21 4.278,-3.628 1.33,-4.822 l 0,0 z"
           id="path147"
           inkscape:connector-curvature="0" /></g></g><g
       id="g149"><g
         id="g151"><path
           d="m 584.618,627.839 c -5.238,-1.985 -10.582,-3.673 -15.819,-5.658 -3.021,-1.145 -4.314,3.69 -1.33,4.822 5.238,1.984 10.582,3.672 15.819,5.658 3.022,1.145 4.315,-3.69 1.33,-4.822 l 0,0 z"
           id="path153"
           inkscape:connector-curvature="0" /></g></g><g
       id="g155"><path
         d="m 584.361,754.376 c 4.655,3.292 9.791,4.436 14.822,5.524 l -0.347,-4.597 c 0.289,0.957 0.434,1.436 0.725,2.393 -1.082,-29.45 -7.529,-59.365 -11.15,-88.57 l -0.724,-2.393 c -4.219,-1.856 -12.893,-3.758 -16.968,-5.136"
         id="path157"
         inkscape:connector-curvature="0"
         style="fill:#c6c6c6" /><g
         id="g159"><path
           d="m 583.1,756.535 c 4.738,3.108 9.929,4.576 15.419,5.776 1.48,0.323 3.294,-0.708 3.165,-2.411 -0.115,-1.532 -0.231,-3.064 -0.347,-4.597 -1.637,0.222 -3.273,0.443 -4.911,0.665 0.241,0.797 0.482,1.595 0.725,2.393 0.802,2.639 5.028,2.229 4.911,-0.665 -0.879,-21.618 -4.369,-42.983 -7.678,-64.33 -1.384,-8.936 -1.673,-18.659 -4.285,-27.298 -0.759,-2.507 -5.466,-3.104 -7.559,-3.726 -3.705,-1.102 -7.476,-1.97 -11.155,-3.156 -3.078,-0.991 -4.385,3.837 -1.33,4.822 5.622,1.812 11.491,2.884 16.968,5.136 -0.582,-0.582 -1.164,-1.164 -1.746,-1.746 1.705,5.636 1.971,11.867 2.826,17.688 1.134,7.709 2.368,15.403 3.551,23.104 2.521,16.42 4.733,32.893 5.408,49.506 1.637,-0.222 3.273,-0.443 4.911,-0.665 -0.243,-0.797 -0.484,-1.595 -0.725,-2.393 -0.79,-2.613 -5.13,-2.237 -4.911,0.665 0.115,1.532 0.231,3.064 0.347,4.597 1.055,-0.804 2.109,-1.607 3.165,-2.411 -5.08,-1.109 -9.825,-2.386 -14.226,-5.272 -2.705,-1.774 -5.207,2.557 -2.523,4.318 l 0,0 z"
           id="path161"
           inkscape:connector-curvature="0" /></g></g><g
       id="g163"><g
         id="g165"><path
           d="m 564.852,484.935 c -4.646,-1.259 -9.271,-2.556 -13.804,-4.179 -3.043,-1.09 -4.341,3.743 -1.329,4.821 4.533,1.623 9.159,2.92 13.803,4.179 3.117,0.845 4.438,-3.979 1.33,-4.821 l 0,0 z"
           id="path167"
           inkscape:connector-curvature="0" /></g></g><g
       id="g169"><g
         id="g171"><path
           d="m 720.332,351.145 c -22.408,10.275 -44.905,20.384 -66.637,32.049 -11.012,5.911 -21.782,12.293 -32.06,19.41 -10.69,7.403 -20.149,16.245 -29.771,24.948 -2.396,2.167 1.151,5.692 3.535,3.535 9.708,-8.781 19.253,-17.583 30.037,-25.051 9.849,-6.82 20.253,-12.827 30.781,-18.525 21.686,-11.737 44.237,-21.778 66.637,-32.049 2.929,-1.343 0.387,-5.651 -2.522,-4.317 l 0,0 z"
           id="path173"
           inkscape:connector-curvature="0" /></g></g><g
       id="g175"><g
         id="g177"><path
           d="m 698.195,347.052 c -20.187,9.65 -39.364,21.342 -57.483,34.451 -15.768,11.408 -31.296,24.052 -43.597,39.235 -2.011,2.481 1.505,6.042 3.535,3.535 12.051,-14.875 27.193,-27.21 42.585,-38.453 18.042,-13.178 37.324,-24.814 57.483,-34.451 2.909,-1.39 0.371,-5.701 -2.523,-4.317 l 0,0 z"
           id="path179"
           inkscape:connector-curvature="0" /></g></g><g
       id="g181"><g
         id="g183"><path
           d="m 586.426,430.249 c -15.625,-8.773 -31.124,-17.783 -47.382,-25.355 -2.903,-1.352 -5.444,2.957 -2.523,4.317 16.258,7.572 31.757,16.582 47.382,25.355 2.814,1.58 5.334,-2.739 2.523,-4.317 l 0,0 z"
           id="path185"
           inkscape:connector-curvature="0" /></g></g><g
       id="g187"><g
         id="g189"><path
           d="m 720.301,357.292 c 0.249,2.609 0.852,5.187 0.628,7.82 1.637,-0.222 3.273,-0.443 4.911,-0.665 -0.065,-0.213 -0.13,-0.425 -0.193,-0.638 -0.93,-3.078 -5.756,-1.766 -4.822,1.329 0.064,0.213 0.129,0.426 0.193,0.638 0.853,2.807 4.677,2.092 4.911,-0.665 0.224,-2.634 -0.379,-5.21 -0.628,-7.82 -0.129,-1.356 -1.039,-2.5 -2.5,-2.5 -1.265,10e-4 -2.63,1.142 -2.5,2.501 l 0,0 z"
           id="path191"
           inkscape:connector-curvature="0" /></g></g><g
       id="g193"><g
         id="g195"><path
           d="m 697.536,351.125 c 0.296,2.709 0.578,5.417 0.725,8.14 0.173,3.207 5.174,3.224 5,0 -0.146,-2.722 -0.429,-5.431 -0.725,-8.14 -0.147,-1.354 -1.025,-2.5 -2.5,-2.5 -1.251,0 -2.648,1.142 -2.5,2.5 l 0,0 z"
           id="path197"
           inkscape:connector-curvature="0" /></g></g><g
       id="g199"><g
         id="g201"><path
           d="m 526.076,413.035 c -58.86,9.014 -117.393,20.806 -176.872,25.114 -3.196,0.231 -3.219,5.233 0,5 59.924,-4.34 118.9,-16.211 178.201,-25.293 3.179,-0.487 1.824,-5.304 -1.329,-4.821 l 0,0 z"
           id="path203"
           inkscape:connector-curvature="0" /></g></g><g
       id="g205"><g
         id="g207"><path
           d="m 587.94,789.277 c -60.063,6.454 -120.865,9.986 -180.204,21.808 -3.161,0.63 -1.819,5.449 1.329,4.822 58.9,-11.734 119.255,-15.224 178.875,-21.63 3.171,-0.34 3.205,-5.344 0,-5 l 0,0 z"
           id="path209"
           inkscape:connector-curvature="0" /></g></g><g
       id="g211"><g
         id="g213"><path
           d="m 347.693,446.614 c 9.618,62.174 19.179,124.357 28.772,186.536 4.729,30.652 9.773,61.256 14.48,91.911 2.459,16.017 4.736,32.062 6.86,48.125 1.699,12.852 4.912,26.219 4.927,39.179 0.003,3.225 5.003,3.225 5,0 -0.015,-13.002 -3.237,-26.311 -4.927,-39.179 -1.998,-15.208 -4.156,-30.396 -6.446,-45.563 -4.727,-31.309 -9.941,-62.545 -14.771,-93.839 -9.695,-62.833 -19.356,-125.671 -29.075,-188.5 -0.491,-3.178 -5.308,-1.823 -4.82,1.33 l 0,0 z"
           id="path215"
           inkscape:connector-curvature="0" /></g></g><g
       id="g217"><g
         id="g219"><path
           d="m 519.838,482.143 c -46.547,7.869 -92.98,16.978 -140.147,20.263 -3.198,0.223 -3.22,5.224 0,5 47.612,-3.316 94.491,-12.499 141.477,-20.441 3.173,-0.538 1.823,-5.356 -1.33,-4.822 l 0,0 z"
           id="path221"
           inkscape:connector-curvature="0" /></g></g><g
       id="g223"><g
         id="g225"><path
           d="m 484.175,523.959 c -29.744,2.679 -59.574,5.147 -88.818,11.461 -3.151,0.68 -1.814,5.5 1.329,4.821 28.812,-6.22 58.186,-8.643 87.489,-11.282 3.185,-0.286 3.213,-5.289 0,-5 l 0,0 z"
           id="path227"
           inkscape:connector-curvature="0" /></g></g><g
       id="g229"><g
         id="g231"><path
           d="m 479.213,544.673 c -22.22,3.246 -44.537,5.875 -66.607,10.071 -3.166,0.602 -1.821,5.42 1.329,4.821 22.071,-4.195 44.387,-6.825 66.607,-10.071 3.181,-0.464 1.824,-5.281 -1.329,-4.821 l 0,0 z"
           id="path233"
           inkscape:connector-curvature="0" /></g></g><g
       id="g235"><g
         id="g237"><path
           d="m 499.137,516.835 c -0.96,3.554 -2.009,7.092 -3.246,10.561 1.523,-0.199 3.046,-0.398 4.569,-0.597 -2.102,-3.63 -4.956,-6.804 -6.339,-10.815 -1.044,-3.029 -5.875,-1.728 -4.821,1.329 1.546,4.485 4.498,7.96 6.843,12.01 1.147,1.981 3.867,1.375 4.569,-0.597 1.236,-3.469 2.285,-7.006 3.246,-10.561 0.843,-3.118 -3.981,-4.439 -4.821,-1.33 l 0,0 z"
           id="path239"
           inkscape:connector-curvature="0" /></g></g><g
       id="g241"><g
         id="g243"><path
           d="m 498.015,538.695 c -0.768,3.755 -1.033,7.646 -2.526,11.213 1.393,-0.368 2.786,-0.735 4.178,-1.103 -1.363,-1.428 -1.898,-3.474 -3.039,-5.073 -1.552,-2.175 -2.842,-4.517 -4.456,-6.661 -1.914,-2.542 -6.258,-0.055 -4.317,2.523 1.728,2.296 3.123,4.793 4.786,7.123 1.305,1.829 1.902,3.958 3.491,5.623 1.432,1.501 3.493,0.535 4.178,-1.103 1.493,-3.567 1.758,-7.458 2.526,-11.213 0.643,-3.147 -4.175,-4.487 -4.821,-1.329 l 0,0 z"
           id="path245"
           inkscape:connector-curvature="0" /></g></g><g
       id="g247"><path
         d="m 549.267,620.51 c -12.731,2.811 -48.063,4.965 -48.063,4.965 0.694,-2.244 1.361,-3.491 0.782,-5.404 -4.348,-14.356 -5.156,-30.829 -8.132,-45.253 l 0.079,-6.641 c 12.703,-1.757 33.621,-4.13 46.42,-5.568"
         id="path249"
         inkscape:connector-curvature="0"
         style="fill:#ffffff" /><g
         id="g251"><path
           d="m 548.602,618.099 c -15.432,3.286 -31.678,3.912 -47.399,4.876 0.804,1.055 1.607,2.109 2.411,3.165 1.63,-4.998 0.188,-8.477 -0.994,-13.495 -1.367,-5.802 -2.215,-11.726 -3.06,-17.62 -1.284,-8.96 -3.236,-17.803 -3.128,-26.848 -0.612,0.804 -1.224,1.607 -1.835,2.411 15.217,-2.087 30.493,-3.764 45.756,-5.479 3.167,-0.356 3.202,-5.36 0,-5 -15.708,1.766 -31.424,3.511 -47.085,5.658 -1.091,0.149 -1.824,1.41 -1.835,2.411 -0.086,7.229 1.273,13.911 2.308,21.08 0.854,5.922 1.641,11.85 2.66,17.746 0.962,5.566 4.172,12.351 2.393,17.807 -0.485,1.488 0.827,3.263 2.411,3.165 16.168,-0.991 32.855,-1.675 48.728,-5.054 3.151,-0.673 1.814,-5.492 -1.331,-4.823 l 0,0 z"
           id="path253"
           inkscape:connector-curvature="0" /></g></g><g
       id="g255"><g
         id="g257"><path
           d="m 536.68,598.354 c 0.926,6.369 3.141,12.619 2.42,19.123 -0.355,3.202 4.649,3.168 5,0 0.769,-6.938 -1.611,-13.66 -2.599,-20.453 -0.462,-3.181 -5.28,-1.824 -4.821,1.33 l 0,0 z"
           id="path259"
           inkscape:connector-curvature="0" /></g></g><g
       id="g261"><g
         id="g263"><path
           d="m 525.862,585.265 c 0.771,5.862 1.625,11.712 2.534,17.556 0.788,5.063 2.538,10.671 2.342,15.797 -0.124,3.226 4.877,3.214 5,0 0.168,-4.398 -1.237,-9.07 -1.929,-13.387 -1.065,-6.644 -2.069,-13.296 -2.947,-19.966 -0.414,-3.15 -5.42,-3.19 -5,0 l 0,0 z"
           id="path265"
           inkscape:connector-curvature="0" /></g></g><g
       id="g267"><g
         id="g269"><path
           d="m 517.201,597.286 c 1.438,7.956 3.698,15.779 3.87,23.909 1.637,-0.222 3.274,-0.443 4.911,-0.665 -0.097,-0.319 -0.193,-0.639 -0.29,-0.958 -0.93,-3.077 -5.757,-1.765 -4.821,1.33 0.096,0.319 0.193,0.639 0.29,0.958 0.804,2.661 4.971,2.216 4.911,-0.665 -0.181,-8.583 -2.531,-16.839 -4.048,-25.239 -0.575,-3.169 -5.393,-1.822 -4.823,1.33 l 0,0 z"
           id="path271"
           inkscape:connector-curvature="0" /></g></g><g
       id="g273"><g
         id="g275"><path
           d="m 507.923,589.648 c 0.852,6.082 1.597,12.179 2.379,18.27 0.271,2.109 0.556,4.216 0.843,6.322 0.131,0.962 1.655,5.619 0.923,6.395 -2.212,2.342 1.318,5.884 3.535,3.535 3.05,-3.229 0.901,-7.419 0.364,-11.259 -1.147,-8.188 -2.076,-16.404 -3.223,-24.593 -0.445,-3.181 -5.263,-1.822 -4.821,1.33 l 0,0 z"
           id="path277"
           inkscape:connector-curvature="0" /></g></g><g
       id="g279"><g
         id="g281"><path
           d="m 440.4,632.089 c 14.235,-18.17 28.279,-36.488 42.16,-54.931 1.941,-2.578 -2.404,-5.065 -4.317,-2.523 -13.625,18.102 -27.406,36.084 -41.377,53.919 -1.966,2.507 1.547,6.072 3.534,3.535 l 0,0 z"
           id="path283"
           inkscape:connector-curvature="0" /></g></g><g
       id="g285"><g
         id="g287"><path
           d="m 443.211,619.337 c 3.224,0 3.224,-5 0,-5 -3.224,0 -3.224,5 0,5 l 0,0 z"
           id="path289"
           inkscape:connector-curvature="0" /></g></g><g
       id="g291"><g
         id="g293"><path
           d="m 456.591,620.584 c 3.224,0 3.224,-5 0,-5 -3.224,0 -3.224,5 0,5 l 0,0 z"
           id="path295"
           inkscape:connector-curvature="0" /></g></g><g
       id="g297"><g
         id="g299"><path
           d="m 463.096,615.376 c 3.224,0 3.224,-5 0,-5 -3.224,0 -3.224,5 0,5 l 0,0 z"
           id="path301"
           inkscape:connector-curvature="0" /></g></g><g
       id="g303"><g
         id="g305"><path
           d="m 459.241,598.823 c 3.224,0 3.224,-5 0,-5 -3.224,0 -3.224,5 0,5 l 0,0 z"
           id="path307"
           inkscape:connector-curvature="0" /></g></g><g
       id="g309"><g
         id="g311"><path
           d="m 471.164,606.784 c 3.224,0 3.224,-5 0,-5 -3.224,0 -3.225,5 0,5 l 0,0 z"
           id="path313"
           inkscape:connector-curvature="0" /></g></g><g
       id="g315"><g
         id="g317"><path
           d="m 468.869,586.847 c 3.224,0 3.224,-5 0,-5 -3.224,0 -3.224,5 0,5 l 0,0 z"
           id="path319"
           inkscape:connector-curvature="0" /></g></g><g
       id="g321"><g
         id="g323"><path
           d="m 444.3,600.961 c 3.224,0 3.224,-5 0,-5 -3.224,0 -3.224,5 0,5 l 0,0 z"
           id="path325"
           inkscape:connector-curvature="0" /></g></g><g
       id="g327"><g
         id="g329"><path
           d="m 537.451,638.063 c -27.345,4.443 -54.639,9.213 -82.083,13.017 -3.182,0.441 -1.823,5.259 1.329,4.822 27.444,-3.805 54.739,-8.574 82.083,-13.017 3.176,-0.517 1.824,-5.334 -1.329,-4.822 l 0,0 z"
           id="path331"
           inkscape:connector-curvature="0" /></g></g><g
       id="g333"><g
         id="g335"><path
           d="m 523.916,650.869 c -16.991,2.781 -33.867,6.354 -51.104,7.229 -3.208,0.163 -3.224,5.164 0,5 17.682,-0.897 35.002,-4.556 52.433,-7.407 3.176,-0.52 1.824,-5.337 -1.329,-4.822 l 0,0 z"
           id="path337"
           inkscape:connector-curvature="0" /></g></g><g
       id="g339"><g
         id="g341"><path
           d="m 534.213,702.918 c -2.189,-1.664 -4.488,-3.152 -6.523,-5.014 -2.39,-2.185 -2.29,-4.402 -3.075,-7.271 -1.456,-5.317 -7.09,-2.646 -10.584,-1.628 -4.094,1.194 -2.876,5.762 -1.8,8.677 2.006,5.435 7.29,2.271 11.259,3.763 3.024,1.137 4.318,-3.698 1.329,-4.822 -1.084,-0.407 -2.116,-0.515 -3.269,-0.522 -0.59,-0.004 -4.186,0.719 -4.494,0.234 -0.209,-0.503 -0.389,-1.016 -0.542,-1.539 -0.078,-0.276 -0.156,-0.553 -0.235,-0.829 -0.169,-0.901 -0.221,-1.022 -0.157,-0.361 0.63,-0.185 3.666,-1.658 3.901,-0.799 0.867,3.167 1.146,5.187 3.353,7.832 2.24,2.686 5.56,4.505 8.313,6.599 2.569,1.95 5.055,-2.395 2.524,-4.32 l 0,0 z"
           id="path343"
           inkscape:connector-curvature="0" /></g></g><g
       id="g345"><g
         id="g347"><path
           d="m 514.543,689.719 c -1.258,-0.936 -2.872,-2.312 -4.445,-3.18 -1.193,-0.659 -2.72,-0.3 -3.42,0.896 -0.676,1.153 -0.294,2.763 0.897,3.42 1.655,0.914 2.937,2.059 4.445,3.182 1.096,0.814 2.789,0.181 3.42,-0.897 0.747,-1.275 0.195,-2.609 -0.897,-3.421 l 0,0 z"
           id="path349"
           inkscape:connector-curvature="0" /></g></g><g
       id="g351"><g
         id="g353"><path
           d="m 513.056,696.996 c -0.895,1.203 -2.254,2.752 -3.278,4.128 -0.815,1.096 -0.181,2.789 0.897,3.421 1.274,0.746 2.609,0.193 3.42,-0.897 0.895,-1.202 2.255,-2.752 3.278,-4.128 0.815,-1.096 0.182,-2.789 -0.897,-3.42 -1.273,-0.746 -2.609,-0.196 -3.42,0.896 l 0,0 z"
           id="path355"
           inkscape:connector-curvature="0" /></g></g><g
       id="g357"><g
         id="g359"><path
           d="m 509.171,709.555 c 3.225,0 3.225,-5 0,-5 -3.225,0 -3.224,5 0,5 l 0,0 z"
           id="path361"
           inkscape:connector-curvature="0" /></g></g><g
       id="g363"><g
         id="g365"><path
           d="m 443.703,695.047 c -1.586,0.237 -3.172,0.474 -4.758,0.71 -1.35,0.201 -2.074,1.884 -1.746,3.076 0.394,1.431 1.729,1.946 3.075,1.746 1.586,-0.237 3.172,-0.474 4.758,-0.71 1.35,-0.202 2.074,-1.883 1.746,-3.076 -0.394,-1.431 -1.729,-1.946 -3.075,-1.746 l 0,0 z"
           id="path367"
           inkscape:connector-curvature="0" /></g></g><g
       id="g369"><g
         id="g371"><path
           d="m 472.934,690.688 c -7.705,1.148 -15.409,2.297 -23.113,3.446 -3.18,0.475 -1.824,5.292 1.329,4.822 7.704,-1.149 15.409,-2.299 23.113,-3.446 3.18,-0.475 1.824,-5.292 -1.329,-4.822 l 0,0 z"
           id="path373"
           inkscape:connector-curvature="0" /></g></g><g
       id="g375"><g
         id="g377"><path
           d="m 456.799,706.238 c -5.098,0.516 -10.199,0.989 -15.307,1.397 -3.191,0.255 -3.216,5.257 0,5 5.107,-0.408 10.209,-0.882 15.307,-1.397 3.176,-0.321 3.207,-5.324 0,-5 l 0,0 z"
           id="path379"
           inkscape:connector-curvature="0" /></g></g><g
       id="g381"><g
         id="g383"><path
           d="m 474.273,704.326 c -4.043,0.463 -8.087,0.917 -12.133,1.354 -3.17,0.342 -3.204,5.346 0,5 4.046,-0.437 8.09,-0.891 12.133,-1.354 3.165,-0.362 3.2,-5.366 0,-5 l 0,0 z"
           id="path385"
           inkscape:connector-curvature="0" /></g></g><g
       id="g387"><g
         id="g389"><path
           d="m 472.687,718.624 c -8.922,1.365 -17.847,2.646 -26.848,3.368 -3.191,0.256 -3.216,5.258 0,5 9.445,-0.758 18.814,-2.114 28.177,-3.546 3.179,-0.486 1.824,-5.303 -1.329,-4.822 l 0,0 z"
           id="path391"
           inkscape:connector-curvature="0" /></g></g><g
       id="g393"><g
         id="g395"><path
           d="m 532.813,733.155 c -33.302,4.917 -66.62,9.762 -100.096,13.358 -3.171,0.341 -3.204,5.344 0,5 33.919,-3.645 67.681,-8.555 101.425,-13.536 3.18,-0.469 1.823,-5.287 -1.329,-4.822 l 0,0 z"
           id="path397"
           inkscape:connector-curvature="0" /></g></g><g
       id="g399"><g
         id="g401"><path
           d="m 532.073,745.682 c -32.782,4.188 -65.269,10.741 -98.284,12.972 -3.199,0.216 -3.22,5.218 0,5 33.02,-2.23 65.5,-8.784 98.284,-12.972 3.153,-0.403 3.192,-5.409 0,-5 l 0,0 z"
           id="path403"
           inkscape:connector-curvature="0" /></g></g><g
       id="g405"><g
         id="g407"><path
           d="m 538.016,759.556 c -35.07,4.237 -70.06,9.103 -105.08,13.723 -3.149,0.415 -3.189,5.421 0,5 35.021,-4.62 70.01,-9.485 105.08,-13.723 3.159,-0.382 3.197,-5.386 0,-5 l 0,0 z"
           id="path409"
           inkscape:connector-curvature="0" /></g></g><g
       id="g411"><g
         id="g413"><path
           d="m 515.707,346.911 c 19.833,128.378 41.803,256.415 62.104,384.718 6.154,38.894 12.145,77.813 17.873,116.772 0.468,3.18 5.285,1.823 4.822,-1.33 -18.904,-128.552 -40.675,-256.656 -61.47,-384.91 -6.297,-38.839 -12.5,-77.694 -18.508,-116.58 -0.491,-3.178 -5.309,-1.823 -4.821,1.33 l 0,0 z"
           id="path415"
           inkscape:connector-curvature="0" /></g></g><g
       id="g417"><g
         id="g419"><path
           d="m 331.14,454.414 c 12.315,60.73 24.593,121.467 36.893,182.201 6.162,30.426 12.537,60.809 18.677,91.238 3.01,14.917 5.907,29.855 8.719,44.811 2.465,13.11 6.027,26.422 7.304,39.702 0.306,3.18 5.309,3.21 5,0 -1.136,-11.817 -4.223,-23.511 -6.388,-35.173 -2.899,-15.614 -5.918,-31.206 -9.033,-46.779 -6.217,-31.09 -12.772,-62.114 -19.065,-93.189 -12.431,-61.379 -24.839,-122.763 -37.285,-184.139 -0.642,-3.16 -5.461,-1.82 -4.822,1.328 l 0,0 z"
           id="path421"
           inkscape:connector-curvature="0" /></g></g><g
       id="g423"><g
         id="g425"><path
           d="m 322.226,464.079 c 13.822,59.32 27.619,118.646 41.43,177.969 6.908,29.671 13.965,59.307 20.853,88.982 3.44,14.821 6.801,29.661 10.103,44.514 2.765,12.442 6.23,24.893 8.21,37.486 0.5,3.178 5.317,1.823 4.821,-1.33 -1.879,-11.948 -5.167,-23.741 -7.781,-35.547 -3.289,-14.856 -6.656,-29.695 -10.084,-44.52 -6.863,-29.68 -13.942,-59.311 -20.85,-88.979 -13.962,-59.968 -27.909,-119.939 -41.881,-179.904 -0.732,-3.14 -5.552,-1.808 -4.821,1.329 l 0,0 z"
           id="path427"
           inkscape:connector-curvature="0" /></g></g><g
       id="g429"><g
         id="g431"><path
           d="m 345.534,448.683 c -3.497,0.809 -6.973,1.708 -10.47,2.518 -3.141,0.727 -1.809,5.547 1.329,4.821 3.497,-0.809 6.973,-1.708 10.47,-2.518 3.14,-0.727 1.808,-5.547 -1.329,-4.821 l 0,0 z"
           id="path433"
           inkscape:connector-curvature="0" /></g></g><g
       id="g435"><g
         id="g437"><path
           d="m 329.817,459.32 c -1.396,0.422 -2.792,0.845 -4.187,1.268 -1.303,0.395 -2.114,1.736 -1.746,3.075 0.354,1.288 1.771,2.141 3.075,1.746 1.396,-0.422 2.792,-0.845 4.187,-1.268 1.303,-0.395 2.114,-1.736 1.746,-3.075 -0.354,-1.288 -1.771,-2.141 -3.075,-1.746 l 0,0 z"
           id="path439"
           inkscape:connector-curvature="0" /></g></g><g
       id="g441"><g
         id="g443"><path
           d="m 414.673,454.067 c -4.038,3.67 -7.96,7.288 -9.516,12.682 -1.31,4.54 0.449,10.863 3.416,14.433 2.308,2.779 6.991,5.898 10.754,4.388 3.875,-1.556 5.56,-9.008 6.226,-12.543 0.593,-3.151 -4.227,-4.496 -4.822,-1.329 -0.566,3.013 -1.657,5.818 -2.959,8.587 -1.457,3.099 -6.551,-4.298 -6.925,-5.218 -3.154,-7.752 2.078,-12.662 7.361,-17.464 2.391,-2.174 -1.155,-5.7 -3.535,-3.536 l 0,0 z"
           id="path445"
           inkscape:connector-curvature="0" /></g></g><g
       id="g447"><g
         id="g449"><path
           d="m 424.339,456.499 c 1.747,7.873 2.983,15.852 5.498,23.533 0.869,2.652 4.885,2.225 4.911,-0.665 0.031,-3.377 -1.229,-6.27 -2.151,-9.467 -0.894,-3.092 -5.719,-1.775 -4.822,1.329 0.79,2.734 2.001,5.235 1.974,8.138 1.637,-0.222 3.273,-0.443 4.911,-0.665 -2.516,-7.682 -3.752,-15.661 -5.498,-23.533 -0.699,-3.147 -5.519,-1.812 -4.823,1.33 l 0,0 z"
           id="path451"
           inkscape:connector-curvature="0" /></g></g><g
       id="g453"><g
         id="g455"><path
           d="m 425.833,450.834 c 3.225,0 3.225,-5 0,-5 -3.225,0 -3.225,5 0,5 l 0,0 z"
           id="path457"
           inkscape:connector-curvature="0" /></g></g><g
       id="g459"><g
         id="g461"><path
           d="m 432.921,453.166 c 2.705,9.572 4.347,20.82 10.953,28.647 2.069,2.452 4.691,2.981 7.151,1.004 3.51,-2.82 2.684,-10.343 2.641,-14.149 -0.037,-3.222 -5.037,-3.226 -5,0 0.038,3.379 0.419,7.037 -1.002,10.207 0.067,-0.15 -4.377,-8.191 -4.607,-8.787 -2.293,-5.901 -3.596,-12.173 -5.313,-18.252 -0.876,-3.097 -5.701,-1.779 -4.823,1.33 l 0,0 z"
           id="path463"
           inkscape:connector-curvature="0" /></g></g><g
       id="g465"><g
         id="g467"><path
           d="m 436.594,456.327 c 1.428,-0.757 2.874,-1.47 4.334,-2.161 0.754,-0.357 3.633,-2.235 4.406,-1.921 2.99,1.212 4.277,-3.626 1.33,-4.821 -1.809,-0.733 -3.783,0.364 -5.439,1.072 -2.427,1.037 -4.822,2.277 -7.154,3.513 -2.85,1.512 -0.323,5.827 2.523,4.318 l 0,0 z"
           id="path469"
           inkscape:connector-curvature="0" /></g></g><g
       id="g471"><g
         id="g473"><path
           d="m 441.761,467.16 c 2.767,-1.796 5.496,-3.648 8.333,-5.333 2.769,-1.645 0.255,-5.968 -2.523,-4.317 -2.837,1.685 -5.566,3.537 -8.333,5.333 -2.693,1.748 -0.19,6.078 2.523,4.317 l 0,0 z"
           id="path475"
           inkscape:connector-curvature="0" /></g></g><g
       id="g477"><g
         id="g479"><path
           d="m 454.754,449.832 c 1.642,8.943 2.742,17.977 4.834,26.833 1.607,-0.443 3.215,-0.886 4.822,-1.329 -1.199,-3.265 -1.205,-6.787 -1.742,-10.2 -0.745,-4.733 -2.397,-9.094 -2.169,-13.969 -1.254,0.72 -2.508,1.439 -3.762,2.159 3.667,2.453 6.608,8.125 9.294,11.616 2.682,3.485 4.586,7.426 7.143,10.987 1.519,2.116 4.354,1.234 4.658,-1.262 0.607,-4.97 -0.455,-9.629 -1.807,-14.393 -1.483,-5.225 -2.432,-10.536 -3.782,-15.772 -0.582,1.025 -1.164,2.05 -1.746,3.075 0.166,-0.056 0.333,-0.111 0.5,-0.167 3.043,-1.013 1.738,-5.843 -1.33,-4.821 -0.166,0.056 -0.333,0.111 -0.5,0.167 -1.308,0.436 -2.1,1.703 -1.746,3.075 1.069,4.144 1.758,8.348 2.833,12.5 1.422,5.488 3.283,10.568 2.578,16.335 1.553,-0.42 3.105,-0.841 4.658,-1.262 -3.258,-4.54 -5.902,-9.384 -9.332,-13.833 -2.735,-3.548 -5.104,-8.026 -8.897,-10.564 -1.66,-1.111 -3.679,0.383 -3.762,2.159 -0.193,4.123 0.665,8.114 1.651,12.098 1.091,4.405 0.869,9.13 2.438,13.4 1.1,2.993 5.572,1.849 4.822,-1.329 -2.093,-8.857 -3.193,-17.891 -4.834,-26.833 -0.581,-3.168 -5.4,-1.821 -4.822,1.33 l 0,0 z"
           id="path481"
           inkscape:connector-curvature="0" /></g></g><g
       id="g483"><g
         id="g485"><path
           d="m 487.404,441.509 c -7.285,5.424 -11.463,15.949 -7.675,24.681 2.029,4.678 5.678,7.819 10.936,6.555 3.927,-0.944 7.28,-6.021 7.912,-9.746 0.534,-3.153 -4.284,-4.503 -4.822,-1.329 -0.432,2.549 -2.007,4.604 -4.108,6.062 -4.258,2.952 -6.087,-5.792 -6.243,-7.645 -0.453,-5.352 2.257,-11.083 6.524,-14.26 2.554,-1.902 0.066,-6.245 -2.524,-4.318 l 0,0 z"
           id="path487"
           inkscape:connector-curvature="0" /></g></g><g
       id="g489"><g
         id="g491"><path
           d="m 495.421,445.166 c 2.244,6.733 3.636,13.606 6.854,20.014 1.356,2.7 3.304,5.55 6.548,5.832 4.912,0.427 6.133,-7.646 7.253,-10.679 1.119,-3.031 -3.715,-4.327 -4.822,-1.329 -0.682,1.846 -1.059,5.77 -2.678,7.021 0.477,-0.369 0.044,-0.153 -0.66,-1.124 -1.748,-2.414 -2.798,-5.375 -3.805,-8.149 -1.539,-4.239 -2.448,-8.652 -3.868,-12.915 -1.014,-3.044 -5.843,-1.739 -4.822,1.329 l 0,0 z"
           id="path493"
           inkscape:connector-curvature="0" /></g></g><g
       id="g495"><g
         id="g497"><path
           d="m 498.498,446.079 c 2.549,-1.015 5.117,-1.985 7.667,-3 1.265,-0.503 2.138,-1.651 1.746,-3.075 -0.332,-1.205 -1.808,-2.251 -3.076,-1.746 -2.549,1.015 -5.117,1.985 -7.667,3 -1.265,0.503 -2.138,1.651 -1.746,3.075 0.331,1.204 1.807,2.25 3.076,1.746 l 0,0 z"
           id="path499"
           inkscape:connector-curvature="0" /></g></g><g
       id="g501"><g
         id="g503"><path
           d="m 503.767,459.602 c 1.877,-1.612 3.598,-4.3 6.063,-5.023 3.087,-0.905 1.771,-5.731 -1.33,-4.821 -3.487,1.023 -5.628,4.042 -8.269,6.31 -2.449,2.103 1.104,5.623 3.536,3.534 l 0,0 z"
           id="path505"
           inkscape:connector-curvature="0" /></g></g><g
       id="g507"><g
         id="g509"><path
           d="m 401.246,456.09 c -2.677,-0.936 -7.11,-2.94 -9.868,-1.056 -3.133,2.14 -4.308,6.327 -2.205,9.729 2.21,3.577 5.46,5.944 8.435,8.833 1.856,1.803 2.657,3.99 2.876,6.515 0.107,1.246 0.024,2.556 -0.487,3.712 -0.938,2.123 -4.813,-1.208 -4.147,-2.054 1.973,-2.502 -1.54,-6.066 -3.535,-3.535 -5.94,7.534 8.383,16.298 12.385,7.243 1.795,-4.063 0.687,-9.371 -1.558,-12.996 -1.439,-2.325 -3.77,-4.077 -5.803,-5.841 -0.379,-0.328 -7.078,-7.885 -2.041,-7.188 1.57,0.218 3.132,0.939 4.619,1.459 3.051,1.068 4.351,-3.764 1.329,-4.821 l 0,0 z"
           id="path511"
           inkscape:connector-curvature="0" /></g></g><rect
       x="310.604"
       y="328.995"
       stroke-miterlimit="10"
       width="494.97601"
       height="538.08099"
       id="rect513"
       style="opacity:0.01000001;fill:none;stroke:#ffffff;stroke-miterlimit:10" /><g
       id="g515"><g
         id="g517"><path
           d="m 629.355,445.115 c 0.945,5.345 1.909,10.684 3.033,15.995 0.82,3.879 0.918,8.192 2.587,11.818 1.169,2.541 4.389,0.889 4.658,-1.262 1.375,-10.978 -1.084,-21.834 -3.539,-32.481 -1.607,0.443 -3.215,0.886 -4.822,1.329 1.427,5.255 4.822,10.194 7.632,14.781 2.828,4.617 5.747,9.588 9.495,13.539 1.372,1.447 3.58,0.599 4.179,-1.103 1.906,-5.422 1.421,-11.148 0.652,-16.748 -0.868,-6.321 -1.141,-13.108 -3.972,-18.912 -1.414,-2.898 -5.726,-0.362 -4.318,2.523 2.169,4.445 2.332,9.719 3.024,14.552 0.82,5.725 1.756,11.667 -0.209,17.255 1.394,-0.368 2.786,-0.735 4.179,-1.103 -3.458,-3.646 -6.077,-8.282 -8.713,-12.527 -2.594,-4.178 -5.824,-8.786 -7.127,-13.586 -0.848,-3.12 -5.544,-1.804 -4.822,1.329 2.364,10.251 4.685,20.584 3.361,31.152 1.553,-0.42 3.105,-0.841 4.658,-1.262 -1.394,-3.03 -1.36,-7.348 -2.082,-10.624 -1.167,-5.299 -2.089,-10.653 -3.032,-15.995 -0.56,-3.17 -5.378,-1.822 -4.822,1.33 l 0,0 z"
           id="path519"
           inkscape:connector-curvature="0" /></g></g><g
       id="g521"><g
         id="g523"><path
           d="m 651.921,430.665 c 1.115,6.608 2.26,13.211 3.385,19.817 0.783,4.595 0.891,10.382 5.09,13.362 7.242,5.138 11.172,-13.65 11.437,-17.679 0.212,-3.221 -4.79,-3.2 -5,0 -0.203,3.099 -1.248,5.994 -2.203,8.923 -0.636,1.954 -1.421,3.199 -2.724,4.761 0.613,-0.735 -1.006,-5.931 -1.162,-7.059 -1.088,-7.844 -2.683,-15.646 -4,-23.454 -0.537,-3.174 -5.354,-1.824 -4.823,1.329 l 0,0 z"
           id="path525"
           inkscape:connector-curvature="0" /></g></g><g
       id="g527"><g
         id="g529"><path
           d="m 656.1,432.435 c 2.908,-2.306 5.986,-4.359 9.161,-6.275 2.756,-1.664 0.244,-5.988 -2.523,-4.317 -3.547,2.141 -6.927,4.483 -10.173,7.058 -2.527,2.001 1.037,5.515 3.535,3.534 l 0,0 z"
           id="path531"
           inkscape:connector-curvature="0" /></g></g><g
       id="g533"><g
         id="g535"><path
           d="m 660.594,443.826 c 1.081,-0.721 2.173,-1.411 3.333,-2 1.214,-0.616 1.555,-2.298 0.896,-3.42 -0.718,-1.227 -2.205,-1.514 -3.42,-0.897 -1.16,0.589 -2.252,1.28 -3.333,2 -1.132,0.754 -1.616,2.192 -0.897,3.42 0.658,1.123 2.285,1.653 3.421,0.897 l 0,0 z"
           id="path537"
           inkscape:connector-curvature="0" /></g></g><g
       id="g539"><g
         id="g541"><path
           d="m 667.588,427.995 c 2.839,7.873 4.36,16.575 9.128,23.601 1.137,1.677 4.061,1.658 4.569,-0.597 2.276,-10.107 0.723,-21.288 0.723,-31.587 -1.637,0.222 -3.273,0.443 -4.911,0.665 1.607,7.573 5.021,14.094 7.526,21.31 0.972,2.801 3.758,8.639 7.549,5.276 3.867,-3.429 3.035,-9.816 2.562,-14.384 -0.701,-6.762 -2.276,-13.265 -3.306,-19.941 -0.491,-3.179 -5.309,-1.824 -4.822,1.329 1.336,8.659 3.931,17.273 3.405,26.157 -0.064,0.857 -0.271,1.678 -0.617,2.462 0.29,-0.063 0.58,-0.125 0.87,-0.188 -0.314,-0.663 -0.588,-1.343 -0.819,-2.04 -0.465,-1.28 -0.901,-2.554 -1.439,-3.806 -2.489,-5.801 -4.77,-11.297 -6.086,-17.504 -0.597,-2.809 -4.911,-2.107 -4.911,0.665 0,9.776 1.612,20.683 -0.545,30.258 1.523,-0.199 3.047,-0.398 4.569,-0.597 -4.521,-6.663 -5.929,-14.935 -8.622,-22.406 -1.087,-3.011 -5.919,-1.713 -4.823,1.327 l 0,0 z"
           id="path543"
           inkscape:connector-curvature="0" /></g></g><g
       id="g545"><g
         id="g547"><path
           d="m 709.164,405.84 c -3.912,-0.856 -8.905,-1.886 -12.1,1.31 -2.592,2.591 -3.791,8.602 -2.022,11.886 2.265,4.206 6.87,6.658 10.805,9.098 2.245,1.392 4.175,0.577 3.337,3.708 -0.354,1.327 -1.282,2.583 -2.036,3.708 -0.546,0.748 -1.143,1.452 -1.791,2.11 -0.925,0.61 -1.234,1.527 -0.93,2.75 2.869,-1.474 0.339,-5.788 -2.523,-4.317 -3.214,1.65 -3.35,6.793 0.483,7.848 4.879,1.342 9.215,-5.573 10.938,-9.067 1.113,-2.26 1.479,-4.695 0.766,-7.114 -0.784,-2.66 -3.506,-2.972 -5.72,-3.942 -2.812,-1.232 -8.888,-4.918 -9.103,-8.216 -0.389,-5.988 4.081,-5.92 8.566,-4.938 3.144,0.685 4.479,-4.135 1.33,-4.824 l 0,0 z"
           id="path549"
           inkscape:connector-curvature="0" /></g></g><g
       id="g551"><g
         id="g553"><path
           d="m 667.016,493.369 c 2.313,14.583 4.845,29.127 5.907,43.871 0.458,6.359 10.153,6.506 10,0 -0.016,-0.667 -0.031,-1.333 -0.048,-2 -0.156,-6.438 -10.157,-6.453 -10,0 0.017,0.667 0.032,1.333 0.048,2 3.333,0 6.667,0 10,0 -1.126,-15.631 -3.812,-31.068 -6.265,-46.529 -1.008,-6.355 -10.643,-3.648 -9.642,2.658 l 0,0 z"
           id="path555"
           inkscape:connector-curvature="0" /></g></g><g
       id="g557"><g
         id="g559"><path
           d="m 674.9,550.197 c 0.048,2 0.097,3.999 0.145,5.998 0.065,2.724 2.225,5 5,5 2.676,0 5.065,-2.274 5,-5 -0.048,-2 -0.097,-3.999 -0.145,-5.998 -0.065,-2.724 -2.225,-5 -5,-5 -2.675,0 -5.065,2.274 -5,5 l 0,0 z"
           id="path561"
           inkscape:connector-curvature="0" /></g></g><g
       id="g563"><g
         id="g565"><path
           d="m 688.957,545.441 c 0.038,1.576 0.064,3.153 0.103,4.729 0.066,2.724 2.225,5 5,5 2.676,0 5.066,-2.274 5,-5 -0.038,-1.576 -0.064,-3.153 -0.103,-4.729 -0.065,-2.724 -2.225,-5 -5,-5 -2.676,0 -5.065,2.274 -5,5 l 0,0 z"
           id="path567"
           inkscape:connector-curvature="0" /></g></g><g
       id="g569"><g
         id="g571"><path
           d="m 697.621,528.398 c -0.342,-2.455 -0.25,-2.931 1.587,-4.601 1.873,-1.701 3.394,-3.782 4.844,-5.839 2.604,-3.693 4.184,-8.41 5.424,-12.711 2.243,-7.782 2.607,-18.628 -4.14,-24.354 -5.759,-4.887 -14.148,-3.103 -18.82,2.314 -3.607,4.182 -8.073,13.077 -2.716,17.52 4.924,4.083 12.04,-2.951 7.07,-7.071 0.373,1.505 0.663,1.564 0.871,0.177 0.304,-0.92 0.927,-1.814 1.406,-2.648 0.813,-1.413 1.874,-2.964 3.651,-3.189 5.608,-0.709 4.017,10.101 3.425,13.011 -1.201,5.91 -3.832,11.439 -8.086,15.721 -4.523,4.552 -5.028,8.09 -4.159,14.33 0.887,6.362 10.521,3.644 9.643,-2.66 l 0,0 z"
           id="path573"
           inkscape:connector-curvature="0" /></g></g></g></svg>