<svg xmlns="http://www.w3.org/2000/svg" data-name="Layer 1" viewBox="0 0 100 100" x="0px" y="0px">
	<title>10</title>
	<g data-name="Group">
		<path data-name="Compound Path" d="M10.1,51.3l8.9-1.5,1.1,3.9,23-4.6a7.7,7.7,0,0,0,4.8,3.9V65.9L30.2,93.4l3.4,2.2L47.9,73.3V97.3h4V73.3L66.3,95.6l3.4-2.2L51.9,65.9V53.1a7.7,7.7,0,0,0,5.6-6.8l13.7-2.7.5,1.8,21.5-2.2L82,2.7,62.4,12l.5,1.8L45.7,20.1l-1.6-5.6,4-1.1L47,9.5,35.1,12.8l1.1,3.9,4-1.1,1.7,5.9L14,31.7l1.1,3.9L6.7,39Zm39.8-2a3.7,3.7,0,1,1,3.7-3.7A3.7,3.7,0,0,1,49.9,49.3Zm29.5-41,8.8,31.3L74.7,41,67.2,14.2ZM64,17.6l6.2,22L56.8,42.3a7.7,7.7,0,0,0-14.5,2.9l-3.5.7L33.9,28.7ZM30.1,30l4.7,16.7L23,49.1l-4.2-15Zm-14,9.5L18,46l-5,.8-1.5-5.4Z" fill="#425469"/>
	</g>
</svg>
